<svg width="361" height="53" viewBox="0 0 361 53" fill="none" xmlns="http://www.w3.org/2000/svg">
<path d="M179.203 46.7328C179.203 49.5153 176.93 51.8075 174.082 51.8075H6.32398C3.47609 51.8075 1.20312 49.5285 1.20312 46.7328V6.254C1.20312 3.48475 3.47609 1.1925 6.31061 1.1925H174.082C176.917 1.1925 179.203 3.445 179.203 6.254V46.7328Z" fill="black"/>
<path d="M40.2858 26.2085C40.2457 21.942 43.8156 19.8485 43.9761 19.769C41.9438 16.854 38.8151 16.4565 37.692 16.4168C35.0848 16.1253 32.531 17.967 31.194 17.967C29.8168 17.967 27.7578 16.43 25.5383 16.483C22.6904 16.5228 20.0164 18.1658 18.5456 20.723C15.5105 25.8905 17.7701 33.549 20.6849 37.7493C22.1289 39.803 23.8269 42.1218 26.033 42.029C28.2124 41.9363 29.028 40.651 31.6486 40.651C34.2424 40.651 34.9912 42.0158 37.2641 41.976C39.604 41.923 41.0747 39.8958 42.4786 37.8155C44.1499 35.457 44.8318 33.1383 44.8585 33.019C44.805 32.9925 40.3126 31.2965 40.2858 26.182V26.2085ZM36.0073 13.6475C37.1705 12.19 37.9728 10.2423 37.7455 8.24152C36.0608 8.30777 33.9483 9.39427 32.7316 10.812C31.662 12.0575 30.6859 14.1245 30.94 16.0325C32.8385 16.165 34.7906 15.0785 36.0207 13.6475H36.0073ZM71.7196 41.7375H68.6845L67.0266 36.57H61.2372L59.6595 41.7375H56.718L62.4272 24.115H65.957L71.7062 41.7375H71.7196ZM66.5051 34.3838L65.0344 29.786C64.8606 29.309 64.5664 28.196 64.1252 26.4735H64.0717C63.8979 27.2155 63.6171 28.3285 63.2294 29.786L61.7319 34.3838H66.5185H66.5051ZM86.4537 35.245C86.4537 37.3915 85.8654 39.0875 84.6889 40.3595C83.6192 41.4725 82.3223 42.029 80.758 42.029C79.0599 42.029 77.8566 41.4328 77.1078 40.227H77.0544V46.9183H74.2065V33.231C74.2065 31.8663 74.1664 30.475 74.0995 29.044H76.6131L76.7736 31.0713H76.8271C77.763 29.5475 79.2337 28.7923 81.1457 28.7923C82.6565 28.7923 83.9134 29.4018 84.9295 30.581C85.9323 31.7735 86.4404 33.337 86.4404 35.2715L86.4537 35.245ZM83.5524 35.3378C83.5524 34.0923 83.2582 33.0853 82.6967 32.2903C82.0816 31.429 81.2527 31.0183 80.2098 31.0183C79.5145 31.0183 78.8727 31.2568 78.2978 31.7205C77.7229 32.1843 77.3619 32.7805 77.1747 33.5358C77.0945 33.8935 77.041 34.1718 77.041 34.397V36.517C77.041 37.4445 77.3351 38.2395 77.9101 38.8623C78.4716 39.4983 79.2204 39.8163 80.1296 39.8163C81.1992 39.8163 82.0415 39.4188 82.6432 38.5973C83.2449 37.7758 83.539 36.6893 83.539 35.351L83.5524 35.3378ZM101.215 35.245C101.215 37.3915 100.626 39.0875 99.4364 40.3595C98.3935 41.4725 97.0698 42.029 95.5055 42.029C93.8208 42.029 92.6041 41.4328 91.8687 40.227H91.8286V46.9183H88.9807V33.231C88.9807 31.8663 88.9406 30.475 88.8738 29.044H91.374L91.5345 31.0713H91.588C92.5239 29.5475 93.9679 28.7923 95.9066 28.7923C97.4174 28.7923 98.6876 29.4018 99.6904 30.581C100.707 31.7735 101.215 33.337 101.215 35.2715V35.245ZM98.3133 35.3378C98.3133 34.0923 98.0458 33.0853 97.4576 32.2903C96.8291 31.429 96.0135 31.0183 94.9707 31.0183C94.262 31.0183 93.6336 31.2568 93.0587 31.7205C92.4971 32.1843 92.1228 32.7805 91.949 33.5358C91.8554 33.8935 91.8153 34.1718 91.8153 34.397V36.517C91.8153 37.4445 92.0827 38.2395 92.671 38.8623C93.2593 39.4983 94.008 39.8163 94.9172 39.8163C95.9868 39.8163 96.8291 39.4188 97.4308 38.5973C98.0191 37.7758 98.3266 36.6893 98.3266 35.351L98.3133 35.3378ZM117.714 36.7953C117.714 38.2925 117.179 39.5115 116.136 40.4655C114.973 41.4858 113.355 42.0025 111.283 42.0025C109.371 42.0025 107.833 41.6448 106.67 40.9028L107.338 38.5443C108.582 39.2863 109.959 39.6573 111.456 39.6573C112.526 39.6573 113.368 39.4188 113.97 38.9418C114.558 38.4648 114.866 37.8155 114.866 37.0205C114.866 36.305 114.625 35.6955 114.13 35.2053C113.649 34.715 112.82 34.2778 111.684 33.8405C108.568 32.6878 107.004 31.005 107.004 28.8055C107.004 27.348 107.539 26.1555 108.649 25.228C109.718 24.3005 111.189 23.8368 113.007 23.8368C114.638 23.8368 115.976 24.1018 117.059 24.6715L116.323 26.9903C115.307 26.4603 114.184 26.1953 112.914 26.1953C111.911 26.1953 111.122 26.4205 110.561 26.9108C110.066 27.3613 109.839 27.8913 109.839 28.5273C109.839 29.2163 110.106 29.7993 110.641 30.2498C111.122 30.6738 111.978 31.1243 113.235 31.6145C114.772 32.224 115.909 32.9395 116.617 33.761C117.339 34.556 117.687 35.5895 117.687 36.8085L117.714 36.7953ZM127.153 31.1375H123.998V37.3253C123.998 38.8888 124.533 39.6705 125.656 39.6705C126.164 39.6705 126.592 39.6308 126.926 39.538L127.006 41.6845C126.431 41.8965 125.696 42.0025 124.773 42.0025C123.65 42.0025 122.768 41.658 122.126 40.9823C121.497 40.3198 121.19 39.1538 121.19 37.5373V31.1508H119.318V29.0308H121.19V26.712L123.998 25.8773V29.0573H127.126V31.1773L127.153 31.1375ZM141.326 35.2848C141.326 37.2325 140.751 38.8358 139.628 40.0945C138.424 41.3798 136.873 42.029 134.921 42.029C133.049 42.029 131.552 41.4063 130.442 40.174C129.319 38.9418 128.758 37.3915 128.758 35.4968C128.758 33.5093 129.319 31.8928 130.496 30.634C131.632 29.3885 133.17 28.7525 135.135 28.7525C137.007 28.7525 138.531 29.3885 139.681 30.6075C140.751 31.8265 141.312 33.39 141.312 35.2848H141.326ZM138.358 35.3775C138.358 34.185 138.09 33.1913 137.595 32.3565C137.007 31.3363 136.151 30.8328 135.055 30.8328C133.905 30.8328 133.023 31.3363 132.434 32.3565C131.9 33.1913 131.672 34.2115 131.672 35.4305C131.672 36.5965 131.913 37.6035 132.434 38.4383C133.049 39.4718 133.905 39.9753 135.015 39.9753C136.111 39.9753 136.967 39.4453 137.582 38.425C138.09 37.5638 138.358 36.5435 138.358 35.3775ZM150.578 31.5085C150.311 31.4555 149.99 31.429 149.682 31.429C148.679 31.429 147.904 31.8265 147.356 32.5553C146.901 33.2178 146.661 34.0658 146.661 35.0728V41.7375H143.813L143.839 33.0323C143.839 31.5748 143.799 30.2498 143.732 29.0308H146.193L146.3 31.482H146.38C146.687 30.634 147.155 29.9715 147.81 29.4548C148.439 29.0043 149.121 28.7923 149.869 28.7923C150.137 28.7923 150.351 28.7923 150.565 28.832V31.5218L150.578 31.5085ZM163.333 34.7813C163.333 35.2848 163.293 35.7088 163.226 36.0665H154.669C154.709 37.3253 155.124 38.2793 155.913 38.9418C156.648 39.5248 157.584 39.8163 158.721 39.8163C159.991 39.8163 161.127 39.6175 162.197 39.22L162.625 41.2075C161.421 41.711 159.977 41.976 158.346 41.976C156.341 41.976 154.776 41.393 153.64 40.2535C152.503 39.061 151.942 37.524 151.942 35.5763C151.942 33.655 152.477 32.0518 153.52 30.7798C154.643 29.4283 156.14 28.7393 158.025 28.7393C159.87 28.7393 161.274 29.4018 162.224 30.7665C162.986 31.853 163.373 33.178 163.373 34.768L163.333 34.7813ZM160.606 34.0525C160.633 33.2178 160.445 32.489 160.071 31.8795C159.563 31.0845 158.801 30.687 157.798 30.687C156.862 30.687 156.1 31.0845 155.525 31.853C155.044 32.4625 154.763 33.178 154.669 34.0525H160.606ZM65.5826 13.25C65.5826 14.84 65.1146 15.9928 64.1653 16.7878C63.2829 17.5165 62.0261 17.8743 60.4216 17.8743C59.6194 17.8743 58.9509 17.8213 58.3893 17.7418V9.27502C59.1247 9.14252 59.9269 9.10277 60.796 9.10277C62.3336 9.10277 63.4701 9.43402 64.2723 10.0833C65.128 10.8253 65.5692 11.8853 65.5692 13.2633L65.5826 13.25ZM64.1118 13.303C64.1118 12.296 63.8444 11.5143 63.3096 10.971C62.7481 10.441 61.9726 10.176 60.9297 10.176C60.4885 10.176 60.1275 10.176 59.7932 10.2555V16.748C59.967 16.748 60.2879 16.7745 60.7291 16.7745C61.7988 16.7745 62.6411 16.4698 63.2294 15.8868C63.791 15.2773 64.0851 14.4293 64.0851 13.2898L64.1118 13.303ZM73.4043 14.628C73.4043 15.582 73.1368 16.377 72.602 16.9865C72.0004 17.6225 71.2383 17.9405 70.2756 17.9405C69.3397 17.9405 68.6177 17.6358 68.0695 17.013C67.5347 16.4168 67.2673 15.6483 67.2673 14.7208C67.2673 13.7668 67.5347 12.9983 68.1096 12.3623C68.6711 11.7528 69.4466 11.4348 70.3825 11.4348C71.3185 11.4348 72.0672 11.7395 72.6288 12.3623C73.1636 12.9453 73.431 13.6873 73.431 14.6413L73.4043 14.628ZM71.9603 14.6678C71.9603 14.098 71.8265 13.6078 71.5859 13.1838C71.2917 12.6935 70.8773 12.4418 70.3291 12.4418C69.7675 12.4418 69.3397 12.6803 69.0455 13.1705C68.7781 13.568 68.6711 14.098 68.6711 14.681C68.6711 15.2375 68.8048 15.741 69.0455 16.1385C69.353 16.642 69.7675 16.8938 70.3157 16.8938C70.8505 16.8938 71.2516 16.6288 71.5591 16.1385C71.8265 15.7145 71.9603 15.211 71.9603 14.6413V14.6678ZM83.9267 11.554L81.9479 17.7815H80.651L79.8488 15.0918C79.6215 14.3895 79.4477 13.727 79.314 13.0513C79.1803 13.7403 79.0064 14.416 78.7791 15.0785L77.9234 17.7683H76.6131L74.768 11.5408H76.212L76.934 14.4955C77.1078 15.1978 77.2549 15.8603 77.3753 16.483C77.509 15.9795 77.6694 15.317 77.9101 14.4955L78.8059 11.5275H79.9557L80.8114 14.4425C81.012 15.158 81.1858 15.847 81.3195 16.4963H81.3463C81.4398 15.8603 81.5869 15.1713 81.7741 14.4425L82.5496 11.5275H83.9134L83.9267 11.554ZM91.1868 17.7948H89.783V14.2173C89.783 13.1175 89.3551 12.5743 88.5128 12.5743C88.1117 12.5743 87.764 12.7068 87.4966 13.0115C87.2292 13.3163 87.0955 13.674 87.0955 14.0715V17.7815H85.705V13.3295C85.705 12.773 85.705 12.1768 85.6649 11.5408H86.9083L86.9618 12.508H87.0019C87.1624 12.2165 87.403 11.978 87.7239 11.766C88.125 11.501 88.5261 11.395 89.0075 11.395C89.5958 11.395 90.0771 11.5805 90.4782 11.9648C90.9595 12.4285 91.2002 13.1175 91.2002 14.0318V17.7815L91.1868 17.7948ZM95.0643 17.7948H93.647V8.69202H95.0509L95.0643 17.7948ZM103.3 14.628C103.3 15.582 103.033 16.377 102.471 16.9865C101.883 17.6225 101.134 17.9405 100.158 17.9405C99.2492 17.9405 98.5138 17.6358 97.9656 17.013C97.4308 16.4168 97.1367 15.6483 97.1367 14.7208C97.1367 13.7668 97.4041 12.9983 97.9924 12.3623C98.5539 11.7528 99.3294 11.4348 100.265 11.4348C101.201 11.4348 101.937 11.7395 102.512 12.3623C103.046 12.9453 103.314 13.6873 103.314 14.6413L103.3 14.628ZM101.83 14.6678C101.83 14.098 101.723 13.6078 101.469 13.1838C101.161 12.6935 100.747 12.4418 100.198 12.4418C99.6369 12.4418 99.2091 12.6803 98.9149 13.1705C98.6475 13.568 98.5138 14.098 98.5138 14.681C98.5138 15.2375 98.6475 15.741 98.9149 16.1385C99.2091 16.642 99.6236 16.8938 100.172 16.8938C100.707 16.8938 101.108 16.6288 101.429 16.1385C101.696 15.7145 101.83 15.211 101.83 14.6413V14.6678ZM110.079 17.7948H108.822L108.689 17.0793H108.662C108.234 17.6358 107.619 17.9273 106.83 17.9273C106.242 17.9273 105.761 17.7418 105.4 17.3575C105.065 17.0395 104.905 16.6023 104.905 16.0988C104.905 15.3435 105.226 14.7738 105.868 14.3498C106.509 13.9523 107.418 13.7535 108.595 13.7668V13.6343C108.595 12.8128 108.154 12.402 107.285 12.402C106.656 12.402 106.108 12.561 105.64 12.8658L105.373 11.9383C105.948 11.5938 106.67 11.4083 107.512 11.4083C109.17 11.4083 109.999 12.2695 109.999 13.992V16.2975C109.999 16.9335 110.026 17.437 110.093 17.7948H110.079ZM108.608 15.6483V14.7208C107.084 14.681 106.309 15.0918 106.309 15.9663C106.309 16.2843 106.402 16.536 106.576 16.695C106.763 16.8275 107.004 16.9203 107.271 16.9203C107.579 16.9203 107.873 16.8275 108.127 16.6288C108.395 16.4433 108.555 16.1915 108.622 15.9V15.635L108.608 15.6483ZM118.035 17.7948H116.791L116.738 16.801H116.711C116.31 17.5563 115.641 17.9405 114.679 17.9405C113.916 17.9405 113.288 17.649 112.807 17.0528C112.272 16.4565 112.031 15.7013 112.031 14.7473C112.031 13.7403 112.299 12.9188 112.86 12.296C113.395 11.713 114.023 11.4215 114.799 11.4215C115.641 11.4215 116.243 11.6865 116.577 12.2695H116.604V8.69202H118.008V16.112C118.008 16.7215 118.008 17.278 118.048 17.7948H118.035ZM116.591 15.1713V14.1113C116.591 13.939 116.591 13.7933 116.55 13.6873C116.47 13.356 116.283 13.0645 116.042 12.8393C115.775 12.6008 115.454 12.4948 115.106 12.4948C114.572 12.4948 114.171 12.6935 113.863 13.1043C113.569 13.5018 113.408 14.0318 113.408 14.6943C113.408 15.3038 113.542 15.8073 113.836 16.1915C114.144 16.589 114.558 16.8143 115.066 16.8143C115.281 16.8206 115.493 16.7757 115.686 16.6835C115.88 16.5912 116.048 16.4543 116.176 16.2843C116.443 15.9795 116.577 15.5953 116.577 15.1448L116.591 15.1713ZM130.028 14.628C130.028 15.582 129.76 16.377 129.199 16.9865C128.611 17.6225 127.862 17.9405 126.886 17.9405C125.95 17.9405 125.228 17.6358 124.68 17.013C124.145 16.4168 123.851 15.6483 123.851 14.7208C123.851 13.7668 124.118 12.9983 124.706 12.3623C125.268 11.7528 126.043 11.4348 126.979 11.4348C127.915 11.4348 128.664 11.7395 129.226 12.3623C129.76 12.9453 130.028 13.6873 130.028 14.6413V14.628ZM128.557 14.6678C128.557 14.098 128.45 13.6078 128.196 13.1838C127.902 12.6935 127.487 12.4418 126.939 12.4418C126.378 12.4418 125.95 12.6803 125.656 13.1705C125.388 13.568 125.281 14.098 125.281 14.681C125.281 15.2375 125.415 15.741 125.656 16.1385C125.963 16.642 126.378 16.8938 126.926 16.8938C127.461 16.8938 127.889 16.6288 128.183 16.1385C128.45 15.7145 128.584 15.211 128.584 14.6413L128.557 14.6678ZM137.555 17.7948H136.165V14.2173C136.165 13.1175 135.737 12.5743 134.895 12.5743C134.453 12.5743 134.119 12.7068 133.865 13.0115C133.598 13.3163 133.464 13.674 133.464 14.0715V17.7815H132.1V13.3295C132.1 12.773 132.073 12.1768 132.033 11.5408H133.263L133.33 12.508H133.37C133.531 12.2165 133.771 11.978 134.092 11.766C134.467 11.501 134.895 11.395 135.349 11.395C135.937 11.395 136.419 11.5805 136.82 11.9648C137.301 12.4285 137.542 13.1175 137.542 14.0318V17.7815L137.555 17.7948ZM146.995 12.5875H145.444V15.635C145.444 16.4035 145.711 16.7878 146.246 16.7878C146.513 16.7878 146.727 16.7613 146.888 16.7215L146.928 17.7815C146.634 17.8743 146.259 17.914 145.818 17.914C145.283 17.914 144.842 17.755 144.521 17.4238C144.214 17.0925 144.053 16.536 144.053 15.741V12.5875H143.117L143.144 11.554H144.053V10.4013L145.43 10.0038V11.5275H146.981V12.561L146.995 12.5875ZM154.402 17.7948H152.998V14.2438C152.998 13.1308 152.597 12.561 151.741 12.561C151.073 12.561 150.632 12.8923 150.404 13.5415C150.337 13.674 150.324 13.8463 150.324 14.045V17.7948H148.92V8.69202H150.311V12.455H150.337C150.779 11.766 151.407 11.4215 152.209 11.4215C152.811 11.4215 153.279 11.607 153.68 11.9913C154.148 12.455 154.375 13.1573 154.375 14.0848V17.7948H154.402ZM162.05 14.3763C162.05 14.6413 162.05 14.84 162.01 15.0123H157.811C157.811 15.6218 158.025 16.0988 158.413 16.4168C158.774 16.6818 159.215 16.8408 159.79 16.8408C160.419 16.8408 160.994 16.748 161.502 16.5493L161.716 17.5165C161.127 17.7815 160.419 17.914 159.603 17.914C158.627 17.914 157.865 17.6225 157.303 17.0528C156.742 16.483 156.474 15.7278 156.474 14.7473C156.474 13.8198 156.742 13.0248 157.25 12.402C157.785 11.7395 158.52 11.395 159.456 11.395C160.352 11.395 161.06 11.7528 161.515 12.4153C161.876 12.9453 162.05 13.6078 162.05 14.3763ZM160.713 14.0185C160.74 13.621 160.646 13.25 160.445 12.9585C160.205 12.561 159.844 12.3755 159.336 12.3755C158.881 12.3755 158.507 12.561 158.226 12.9453C157.985 13.2368 157.852 13.6078 157.825 14.0053H160.726L160.713 14.0185Z" fill="white"/>
<path d="M174.082 51.675C176.85 51.675 179.163 49.4225 179.163 46.7328V6.26725C179.163 3.5775 176.85 1.325 174.082 1.325H6.32419C5.66926 1.325 5.02076 1.45284 4.41569 1.70121C3.81062 1.94958 3.26084 2.31362 2.79774 2.77255C1.86247 3.6994 1.33704 4.95648 1.33704 6.26725V46.7328C1.33704 49.449 3.58326 51.675 6.32419 51.675H174.082ZM174.082 53H6.32419C2.84789 53 0 50.1778 0 46.7328V6.26725C0 2.82225 2.83452 0 6.32419 0H174.082C177.559 0 180.5 2.809 180.5 6.26725V46.7328C180.5 50.1778 177.559 53 174.082 53Z" fill="#A6A6A6"/>
<path d="M354.315 0H187.185C183.493 0 180.5 2.96611 180.5 6.625V46.375C180.5 50.0339 183.493 53 187.185 53H354.315C358.007 53 361 50.0339 361 46.375V6.625C361 2.96611 358.007 0 354.315 0Z" fill="black"/>
<path d="M243.903 13.568C243.943 14.5485 243.582 15.5025 242.9 16.218C242.138 17.013 241.069 17.437 239.959 17.4105C238.261 17.384 236.75 16.3505 236.082 14.8135C235.453 13.2632 235.814 11.4745 237.017 10.282C237.78 9.48698 238.849 9.06298 239.959 9.08948C240.521 9.08948 241.082 9.19548 241.604 9.42073C242.085 9.63273 242.513 9.95073 242.86 10.3217L242.152 11.024C241.617 10.4012 240.815 10.0567 239.972 10.0965C239.13 10.0965 238.314 10.4277 237.726 11.024C237.124 11.6335 236.817 12.4417 236.844 13.2765C236.844 14.5352 237.579 15.688 238.742 16.1915C239.919 16.695 241.283 16.4565 242.192 15.5687C242.593 15.1315 242.86 14.5485 242.86 13.9522H239.959V13.0247H243.836C243.89 13.2102 243.903 13.4222 243.903 13.6077V13.568ZM250.027 10.2555H246.417V12.773H249.706V13.727H246.417V16.2445H250.027V17.225H245.347V9.27498H250.027V10.2555ZM254.412 17.225H253.383V10.2555H251.15V9.27498H256.712V10.2555H254.412V17.225ZM260.643 17.225V9.27498H261.672V17.225H260.643ZM266.245 17.225H265.216V10.2555H262.969V9.27498H268.478V10.2555H266.245V17.225ZM278.907 16.1915C277.302 17.7815 274.668 17.7815 273.024 16.1915C272.27 15.3915 271.851 14.3379 271.851 13.2434C271.851 12.1489 272.27 11.0952 273.024 10.2952C273.826 9.50023 274.869 9.07623 275.965 9.07623C277.089 9.07623 278.145 9.51348 278.907 10.2952C279.679 11.086 280.11 12.1431 280.11 13.2434C280.11 14.3436 279.679 15.4007 278.907 16.1915ZM273.799 15.529C275.003 16.7215 276.955 16.7215 278.158 15.529C279.361 14.2305 279.361 12.2695 278.158 10.971C276.955 9.77848 275.003 9.77848 273.799 10.971C272.596 12.2695 272.596 14.2305 273.799 15.529ZM281.554 17.225V9.27498H282.811L286.715 15.4627V9.27498H287.745V17.225H286.675L282.61 10.7325V17.225H281.554Z" fill="white" stroke="white" stroke-width="0.2"/>
<path d="M271.606 28.8188C268.477 28.8188 265.936 31.3628 265.95 34.4633C265.957 35.9592 266.562 37.3915 267.631 38.4468C268.701 39.5021 270.149 40.0945 271.659 40.0945C274.788 40.0945 277.328 37.577 277.328 34.4633C277.368 32.9528 276.766 31.5085 275.697 30.4485C274.627 29.3885 273.156 28.8055 271.632 28.832L271.606 28.8188ZM271.606 37.8685C270.188 37.9613 268.865 37.206 268.263 35.934C267.648 34.662 267.862 33.1515 268.838 32.1313C269.801 31.0978 271.298 30.7665 272.622 31.27C273.959 31.8 274.814 33.0455 274.814 34.45C274.855 35.3245 274.547 36.1725 273.932 36.835C273.33 37.471 272.488 37.842 271.606 37.8685ZM259.171 28.8188C256.016 28.8188 253.489 31.3363 253.489 34.4633C253.489 35.955 254.087 37.3857 255.151 38.4405C256.215 39.4953 257.659 40.0879 259.164 40.0879C260.67 40.0879 262.113 39.4953 263.178 38.4405C264.242 37.3857 264.84 35.955 264.84 34.4633C264.84 32.9528 264.252 31.5085 263.182 30.4485C262.113 29.3885 260.642 28.8055 259.118 28.832L259.171 28.8188ZM259.171 37.8685C257.74 37.9745 256.417 37.206 255.802 35.9473C255.187 34.6753 255.401 33.1648 256.377 32.1313C256.849 31.631 257.462 31.2818 258.136 31.1284C258.81 30.975 259.515 31.0243 260.16 31.27C261.498 31.8 262.353 33.0455 262.353 34.45C262.393 35.3245 262.086 36.1725 261.471 36.835C260.869 37.471 260.027 37.842 259.144 37.8685H259.171ZM244.33 30.5545V32.9395H250.106C250.012 34.0658 249.544 35.1258 248.769 35.9473C247.606 37.1398 245.988 37.7625 244.317 37.6963C242.637 37.6623 241.038 36.9773 239.863 35.7883C238.687 34.5992 238.028 33.0009 238.028 31.3363C238.028 29.6716 238.687 28.0733 239.863 26.8843C241.038 25.6952 242.637 25.0103 244.317 24.9763C245.948 24.9498 247.525 25.5593 248.689 26.6988L250.387 25.0028C249.593 24.2133 248.649 23.5879 247.609 23.1625C246.569 22.7372 245.455 22.5205 244.33 22.525C241.094 22.3925 238.046 24.0355 236.388 26.8048C235.574 28.157 235.145 29.7022 235.145 31.2767C235.145 32.8511 235.574 34.3963 236.388 35.7485C237.198 37.1061 238.365 38.2208 239.763 38.9743C241.161 39.7279 242.74 40.0921 244.33 40.0283C246.643 40.1608 248.876 39.2333 250.48 37.5903C251.894 36.0722 252.648 34.0635 252.579 31.9988C252.579 31.4953 252.553 30.9918 252.446 30.5015L244.343 30.581L244.33 30.5545ZM304.898 32.4095C304.556 31.3921 303.908 30.5032 303.04 29.8633C302.171 29.2234 301.126 28.8634 300.044 28.832C298.574 28.832 297.17 29.415 296.167 30.4883C295.137 31.5483 294.616 33.0058 294.696 34.4633C294.696 35.9605 295.258 37.4048 296.327 38.4648C297.397 39.5248 298.841 40.121 300.338 40.0945C302.25 40.0945 304.029 39.167 305.085 37.6035L303.146 36.2785C302.558 37.2458 301.502 37.842 300.338 37.842C299.162 37.8818 298.065 37.206 297.598 36.1195L305.219 33.019L304.924 32.436L304.898 32.4095ZM297.143 34.291C297.103 33.4695 297.384 32.648 297.945 32.0385C298.507 31.4158 299.282 31.0448 300.125 31.005C301.007 30.952 301.836 31.4025 302.237 32.1975L297.156 34.291H297.143ZM291.006 39.75H293.493V23.1875H290.993V39.75H291.006ZM286.901 30.0775H286.808C286.046 29.2295 284.963 28.7525 283.813 28.7525C280.778 28.885 278.398 31.376 278.398 34.3838C278.398 37.4048 280.804 39.8825 283.826 40.0283C284.976 40.0548 286.072 39.5778 286.821 38.7033H286.901V39.5248C286.901 41.6845 285.738 42.8373 283.866 42.8373C283.243 42.823 282.638 42.6268 282.126 42.2733C281.615 41.9197 281.22 41.4246 280.992 40.8498L278.812 41.7375C279.229 42.7208 279.93 43.56 280.827 44.1494C281.724 44.7389 282.777 45.0522 283.853 45.05C286.768 45.05 289.201 43.3275 289.201 39.1803V29.15H286.888V30.0775H286.901ZM284.04 37.8685C282.248 37.7095 280.885 36.2255 280.885 34.45C280.885 32.6745 282.248 31.1905 284.04 31.0315C284.909 31.0713 285.711 31.4688 286.286 32.0915C286.874 32.754 287.155 33.5888 287.088 34.45C287.169 35.3113 286.874 36.1725 286.286 36.8085C285.725 37.471 284.909 37.842 284.04 37.8685ZM316.61 23.1875H310.647V39.75H313.147V33.4695H316.65C318.589 33.602 320.447 32.6745 321.464 31.005C322.48 29.362 322.48 27.295 321.464 25.652C320.967 24.843 320.255 24.1852 319.406 23.7505C318.557 23.3157 317.604 23.121 316.65 23.1875H316.61ZM316.61 31.1375H313.134V25.493H316.677C318.255 25.493 319.552 26.765 319.552 28.3418C319.552 29.892 318.255 31.164 316.677 31.164L316.624 31.1243L316.61 31.1375ZM332.04 28.7525C330.168 28.6465 328.43 29.6403 327.587 31.27L329.82 32.1975C330.261 31.376 331.157 30.899 332.093 30.9785C332.735 30.899 333.377 31.0845 333.885 31.5085C334.393 31.906 334.714 32.4758 334.781 33.0985V33.284C333.978 32.86 333.082 32.648 332.173 32.648C329.767 32.648 327.36 33.973 327.36 36.358C327.413 37.418 327.895 38.372 328.657 39.061C329.419 39.75 330.449 40.0945 331.491 40.015C332.775 40.1078 334.005 39.485 334.7 38.425H334.781V39.75H337.187V33.39C337.187 30.475 334.968 28.7923 332.106 28.7923L332.053 28.7525H332.04ZM331.732 37.8288C330.93 37.8288 329.793 37.4313 329.793 36.4243C329.793 35.0993 331.211 34.6488 332.467 34.6488C333.27 34.6488 334.045 34.821 334.74 35.2053C334.656 35.9246 334.311 36.5893 333.771 37.0765C333.23 37.5636 332.53 37.8403 331.799 37.8553L331.745 37.8155L331.732 37.8288ZM345.958 29.15L343.097 36.3315H343.017L340.035 29.15H337.361L341.813 39.1935L339.273 44.7585H341.88L348.726 29.15H345.945H345.958ZM323.496 39.75H325.983V23.1875H323.483V39.75H323.496Z" fill="white"/>
<path d="M194.458 10.0038C194.016 10.5338 193.789 11.236 193.869 11.925V41.075C193.829 41.7375 194.043 42.4 194.484 42.93L194.578 43.0228L211.117 26.6987V26.3013L194.538 9.9375L194.458 10.0303V10.0038Z" fill="url(#paint0_linear_303_818)"/>
<path d="M216.6 32.1577L211.078 26.6855V26.288L216.6 20.8555L216.734 20.9085L223.285 24.592C225.157 25.652 225.157 27.3745 223.285 28.4345L216.734 32.1047L216.6 32.1577Z" fill="url(#paint1_linear_303_818)"/>
<path d="M216.734 32.0915L211.118 26.5L194.445 42.9963C195.248 43.6853 196.397 43.7117 197.226 43.0757L216.747 32.1047" fill="url(#paint2_linear_303_818)"/>
<path d="M216.734 20.9085L197.213 9.91102C196.812 9.60624 196.317 9.44886 195.812 9.46577C195.308 9.48269 194.824 9.67286 194.445 10.0038L211.118 26.5L216.734 20.9085Z" fill="#00F076"/>
<path d="M354.582 51.675C357.35 51.675 359.663 49.4225 359.663 46.7328V6.26725C359.663 3.5775 357.35 1.325 354.582 1.325H186.824C185.502 1.325 184.233 1.8457 183.298 2.77255C182.362 3.6994 181.837 4.95648 181.837 6.26725V46.7328C181.837 49.449 184.083 51.675 186.824 51.675H354.582ZM354.582 53H186.824C183.348 53 180.5 50.1778 180.5 46.7328V6.26725C180.5 2.82225 183.335 0 186.824 0H354.582C358.059 0 361 2.809 361 6.26725V46.7328C361 50.1778 358.059 53 354.582 53Z" fill="#A6A6A6"/>
<defs>
<linearGradient id="paint0_linear_303_818" x1="1057.04" y1="9.9375" x2="1057.04" y2="3318.46" gradientUnits="userSpaceOnUse">
<stop offset="0.03938" stop-color="#00C3FF"/>
<stop offset="0.97744" stop-color="#00E1FF"/>
</linearGradient>
<linearGradient id="paint1_linear_303_818" x1="1310.13" y1="585.968" x2="-1922.83" y2="585.968" gradientUnits="userSpaceOnUse">
<stop stop-color="#FDDE31"/>
<stop offset="0.4" stop-color="#FABC31"/>
<stop offset="0.77" stop-color="#F8A431"/>
<stop offset="1" stop-color="#F79B31"/>
</linearGradient>
<linearGradient id="paint2_linear_303_818" x1="2115.77" y1="329.921" x2="17.2373" y2="3896.37" gradientUnits="userSpaceOnUse">
<stop stop-color="#FF3A44"/>
<stop offset="1" stop-color="#C4206D"/>
</linearGradient>
</defs>
</svg>
